<svg enable-background="new 0 0 1024 1024" viewBox="0 0 1024 1024" xmlns="http://www.w3.org/2000/svg"><circle cx="512" cy="512" fill="#32325d" r="512"/><g fill="#fff"><path d="m781.7 515.7c0-38.4-18.6-68.6-54.1-68.6-35.7 0-57.2 30.3-57.2 68.3 0 45.1 25.5 67.9 62 67.9 17.8 0 31.3-4 41.5-9.7v-30c-10.2 5.1-21.9 8.2-36.7 8.2-14.5 0-27.4-5.1-29.1-22.8h73.3c0-1.9.3-9.7.3-13.3zm-74-14.2c0-16.9 10.3-24 19.8-24 9.1 0 18.9 7 18.9 24z"/><path d="m612.5 447.1c-14.7 0-24.1 6.9-29.4 11.7l-1.9-9.3h-33v174.7l37.5-7.9.1-42.4c5.4 3.9 13.3 9.4 26.5 9.4 26.8 0 51.2-21.6 51.2-69.1 0-43.4-24.8-67.1-51-67.1zm-9 103.3c-8.8 0-14.1-3.1-17.7-7l-.1-55.6c3.9-4.3 9.3-7.3 17.8-7.3 13.6 0 23.1 15.3 23.1 34.9 0 20-9.3 35-23.1 35z"/><path d="m496.7 438.3 37.6-8.1v-30.4l-37.6 7.9z"/><path d="m496.7 449.7h37.6v131.1h-37.6z"/><path d="m456.4 460.8-2.4-11.1h-32.4v131.1h37.5v-88.8c8.8-11.5 23.8-9.4 28.5-7.8v-34.5c-4.8-1.8-22.3-5.1-31.2 11.1z"/><path d="m381.5 417.2-36.5 7.8-.1 120c0 22.2 16.6 38.5 38.8 38.5 12.3 0 21.3-2.2 26.2-4.9v-30.4c-4.8 1.9-28.5 8.8-28.5-13.3v-53.2h28.5v-31.9h-28.5z"/><path d="m280.2 487.7c0-5.8 4.8-8.1 12.7-8.1 11.4 0 25.8 3.4 37.2 9.6v-35.2c-12.4-4.9-24.7-6.9-37.2-6.9-30.4 0-50.6 15.9-50.6 42.4 0 41.3 56.9 34.8 56.9 52.6 0 6.9-6 9.1-14.4 9.1-12.4 0-28.3-5.1-40.9-12v35.7c13.9 6 28 8.5 40.9 8.5 31.2 0 52.6-15.4 52.6-42.2-.1-44.6-57.2-36.7-57.2-53.5z"/></g></svg>